PathFileType	4	(X/Y/Z)	C:/Users/opensim2020/Desktop/walking_exp_matlab/subject06_walking12_straigt_04.trc																																																																																																																																														
DataRate	CameraRate	NumFrames	NumMarkers	Units	OrigDataRate	OrigDataStartFrame	OrigNumFrames																																																																																																																																										
100	100	4	48	mm	100	2833	181																																																																																																																																										
Frame#	Time	LFHD			RFHD			LBHD			RBHD			C7			T10			CLAV			STRN			RBAK			LSHO			LUPA			LELB			LFRM			LWRA			LWRB			LFIN			RSHO			RUPA			RELB			RFRM			RWRA			RWRB			RFIN			LASI			RASI			LPSI			RPSI			LTHI			LKNE			LTIB			LANK			LHEE			LTOE			RTHI			RKNE			RTIB			RANK			RHEE			RTOE			*39			*40			*41			*42			*43			*44			*45			*46			*47		
		X1	Y1	Z1	X2	Y2	Z2	X3	Y3	Z3	X4	Y4	Z4	X5	Y5	Z5	X6	Y6	Z6	X7	Y7	Z7	X8	Y8	Z8	X9	Y9	Z9	X10	Y10	Z10	X11	Y11	Z11	X12	Y12	Z12	X13	Y13	Z13	X14	Y14	Z14	X15	Y15	Z15	X16	Y16	Z16	X17	Y17	Z17	X18	Y18	Z18	X19	Y19	Z19	X20	Y20	Z20	X21	Y21	Z21	X22	Y22	Z22	X23	Y23	Z23	X24	Y24	Z24	X25	Y25	Z25	X26	Y26	Z26	X27	Y27	Z27	X28	Y28	Z28	X29	Y29	Z29	X30	Y30	Z30	X31	Y31	Z31	X32	Y32	Z32	X33	Y33	Z33	X34	Y34	Z34	X35	Y35	Z35	X36	Y36	Z36	X37	Y37	Z37	X38	Y38	Z38	X39	Y39	Z39	X40	Y40	Z40	X41	Y41	Z41	X42	Y42	Z42	X43	Y43	Z43	X44	Y44	Z44	X45	Y45	Z45	X46	Y46	Z46	X47	Y47	Z47	X48	Y48	Z48
																																																																																																																																																	
68	0.67	-422.931	1666.50549	-1492.15234	-423.90643	1654.59351	-1360.8269	-554.91736	1607.47168	-1492.68774	-554.33173	1601.94507	-1364.43359	-553.09436	1452.99646	-1430.70654	-590.97681	1125.10461	-1414.36987	-442.8515	1375.31946	-1435.96106	-407.29224	1199.18726	-1439.48608	-621.33221	1286.35876	-1339.32617	-510.15271	1403.83264	-1594.0885	-553.58881	1205.36047	-1660.03223	-582.12415	1096.50146	-1667.83618	-589.78668	946.20801	-1689.50232	-553.89453	820.96838	-1645.6665	-613.11646	829.62213	-1685.76758	-592.48138	740.42523	-1682.51526	-476.9072	1411.52295	-1273.07666	-485.75888	1213.65137	-1177.93372	-454.14471	1096.53943	-1164.10608	-391.04861	994.96484	-1155.98682	-279.52911	901.67303	-1204.8667	-323.00241	876.0647	-1160.76123	-254.76863	828.26459	-1166.18713	-414.61835	967.53247	-1529.6261	-414.95285	966.49695	-1310.78601	-574.48175	990.23712	-1503.04553	-566.69666	993.95105	-1334.35181	-407.89481	661.91913	-1598.67017	-351.98303	508.74811	-1574.02637	-383.79977	256.44424	-1569.69507	-381.51721	83.16855	-1533.43579	-416.74445	67.08494	-1483.87976	-239.71532	54.69664	-1542.64221	-497.57263	631.25079	-1270.27991	-512.81543	506.03714	-1294.82483	-612.34131	254.87659	-1305.89526	-662.51575	77.29895	-1359.15955	-704.39185	56.97326	-1405.34644	-512.97693	34.89834	-1355.25366	-524.77338	1701.38647	-1432.87195	NaN	NaN	NaN	NaN	NaN	NaN	NaN	NaN	NaN	NaN	NaN	NaN	NaN	NaN	NaN	NaN	NaN	NaN	NaN	NaN	NaN	NaN	NaN	NaN
69	0.68	-412.48657	1664.90991	-1492.72913	-413.42673	1653.13782	-1361.32373	-544.41132	1605.76965	-1493.14868	-543.88092	1600.40991	-1364.84473	-542.45532	1451.4585	-1430.90869	-581.04138	1123.67859	-1414.47852	-432.34036	1373.73865	-1436.16687	-397.1153	1197.59106	-1439.52075	-611.06787	1285.02332	-1339.30664	-499.78186	1402.29272	-1594.34497	-545.76666	1204.65356	-1659.98682	-576.112	1096.15564	-1667.4801	-586.49792	945.99133	-1689.11072	-552.8501	820.17096	-1645.23523	-611.90961	829.94849	-1685.04138	-592.84827	740.16034	-1681.88904	-466.53531	1410.16077	-1273.32288	-474.67044	1212.54626	-1177.74329	-441.73239	1095.90039	-1164.12317	-376.85693	995.89813	-1156.05383	-263.37747	905.57886	-1205.77625	-306.06323	878.73621	-1161.66357	-236.60027	832.81036	-1167.35706	-404.2356	966.31372	-1529.67615	-405.35458	964.96753	-1310.93494	-564.37518	988.68182	-1503.39746	-556.86414	992.43701	-1334.6676	-399.75388	659.63025	-1598.81702	-342.75095	506.93976	-1573.79688	-362.06683	253.15825	-1570.04224	-349.58224	80.15712	-1533.73218	-383.84012	62.50056	-1484.1582	-206.31458	58.47051	-1542.63538	-489.8237	630.27478	-1270.5448	-506.81262	505.27753	-1294.82227	-609.85168	255.24176	-1306.05908	-662.06836	78.21465	-1359.25403	-704.01776	58.26355	-1405.57202	-512.96625	34.81577	-1355.27405	-514.35736	1699.77209	-1433.42139	NaN	NaN	NaN	NaN	NaN	NaN	NaN	NaN	NaN	NaN	NaN	NaN	NaN	NaN	NaN	NaN	NaN	NaN	NaN	NaN	NaN	NaN	NaN	NaN
70	0.69	-402.02417	1663.29407	-1493.36145	-402.90927	1651.61682	-1361.86145	-533.85907	1603.98889	-1493.6272	-533.36652	1598.77686	-1365.323	-531.99481	1449.94177	-1431.20947	-571.13586	1122.20789	-1414.8446	-421.88297	1372.11353	-1436.44836	-386.84399	1195.90344	-1439.61328	-600.73468	1283.64355	-1339.39038	-489.43073	1400.75598	-1594.61865	-537.76227	1203.92993	-1659.89612	-569.69562	1095.86047	-1667.18286	-582.74048	945.89258	-1688.67407	-550.80505	819.45752	-1644.96179	-610.13269	830.18414	-1684.25574	-592.60638	740.08502	-1681.3645	-456.07928	1408.71069	-1273.63696	-463.56952	1211.41028	-1177.64221	-429.6709	1095.18469	-1163.84338	-362.92075	996.63983	-1156.25122	-247.68343	909.26624	-1206.84009	-289.40176	881.24841	-1162.64734	-218.94392	837.27887	-1168.63318	-393.72098	964.98419	-1529.81665	-395.08865	963.64252	-1310.95935	-554.06567	986.99939	-1503.91248	-546.90881	990.84851	-1335.16748	-391.92966	656.96484	-1599.28015	-333.69199	504.95462	-1573.59949	-341.06436	250.2849	-1570.34021	-318.74808	78.09697	-1534.05676	-352.03186	59.06305	-1484.47034	-174.06352	62.90372	-1543.15015	-482.11298	629.54974	-1270.77563	-500.84238	504.6084	-1294.74109	-607.34271	255.73904	-1306.12988	-661.65289	79.26089	-1359.26013	-703.67871	59.64897	-1405.69666	-512.81085	34.7298	-1355.35632	-503.85501	1698.099	-1434.03455	NaN	NaN	NaN	NaN	NaN	NaN	NaN	NaN	NaN	NaN	NaN	NaN	NaN	NaN	NaN	NaN	NaN	NaN	NaN	NaN	NaN	NaN	NaN	NaN
71	0.7	-391.59531	1661.62939	-1493.95947	-392.39578	1650.06189	-1362.401	-523.29919	1602.18848	-1494.18445	-522.78314	1597.07898	-1365.82471	-521.30298	1448.31409	-1431.51965	-561.13263	1120.65015	-1415.3186	-411.27155	1370.45984	-1436.80042	-376.46899	1194.22583	-1439.82788	-590.42468	1282.24341	-1339.60571	-479.0556	1399.17932	-1595.00354	-529.57538	1203.0896	-1659.90967	-563.04114	1095.50854	-1666.95117	-578.15558	945.46094	-1687.82178	-548.28278	818.84656	-1644.75598	-607.84888	830.4306	-1683.52222	-591.52344	740.17749	-1680.99194	-445.60345	1407.18982	-1273.98804	-452.56183	1210.18457	-1177.58557	-417.79669	1094.35681	-1163.72852	-349.14984	997.28174	-1156.56909	-232.37752	912.75134	-1207.93054	-273.12973	883.61023	-1163.65759	-201.61797	841.49707	-1169.94348	-383.09653	963.50488	-1530.14832	-384.84576	962.26593	-1311.11133	-543.53888	985.13995	-1504.59424	-536.8725	989.23511	-1335.83496	-384.0354	654.23468	-1600.15271	-324.9718	502.74796	-1573.64099	-320.77649	247.98093	-1570.55908	-289.21729	77.07207	-1534.45447	-321.18716	56.44572	-1484.73975	-143.84978	68.17851	-1543.26465	-474.49615	628.78546	-1270.94299	-494.55179	503.96582	-1294.57581	-604.74854	256.3512	-1306.02161	-661.14441	80.42216	-1359.09424	-703.32178	61.19471	-1405.56067	-512.75049	34.72782	-1355.37988	-493.34714	1696.35608	-1434.63184	NaN	NaN	NaN	NaN	NaN	NaN	NaN	NaN	NaN	NaN	NaN	NaN	NaN	NaN	NaN	NaN	NaN	NaN	NaN	NaN	NaN	NaN	NaN	NaN
